<?xml version="1.0" encoding="UTF-8"?><!DOCTYPE svg PUBLIC "-//W3C//DTD SVG 1.1//EN" "http://www.w3.org/Graphics/SVG/1.1/DTD/svg11.dtd"><svg viewBox="0 0 64 64" xmlns="http://www.w3.org/2000/svg" xmlns:xlink="http://www.w3.org/1999/xlink"><style>:root>svg{display:none}:root>svg:target{display:block}</style><svg viewBox="0 0 40 40" id="check" xmlns="http://www.w3.org/2000/svg"><path d="M18.106 33.55a4.646 4.646 0 01-6.568 0L1.36 23.374a4.644 4.644 0 116.569-6.568l6.064 6.063c.457.457 1.2.457 1.66 0L32.07 6.45a4.646 4.646 0 016.569 6.568L18.106 33.551z"/></svg><svg viewBox="0 0 64 64" id="close" xmlns="http://www.w3.org/2000/svg"><path d="M-448-64H832v800H-448z"/><path d="M32.033 29.19l15.55-15.55 2.863 2.863-15.55 15.55 15.55 15.55-2.863 2.863-15.55-15.55-15.55 15.55-2.863-2.863 15.55-15.55-15.55-15.55 2.863-2.863 15.55 15.55z"/><path d="M32.033 29.19l15.55-15.55 2.863 2.863-15.55 15.55 15.55 15.55-2.863 2.863-15.55-15.55-15.55 15.55-2.863-2.863 15.55-15.55-15.55-15.55 2.863-2.863 15.55 15.55z"/></svg><svg viewBox="0 0 22 22" id="facebook" xmlns="http://www.w3.org/2000/svg"><g clip-path="url(#cclip0_293_1762)"><path d="M12.704 22V11.966h3.367l.505-3.912h-3.872V5.557c0-1.133.313-1.904 1.938-1.904l2.07-.001V.153C16.354.107 15.126 0 13.695 0c-2.986 0-5.03 1.823-5.03 5.17v2.884H5.288v3.912h3.377V22h4.039z"/></g><defs><clipPath id="cclip0_293_1762"><path d="M0 0h22v22H0z"/></clipPath></defs></svg><svg viewBox="0 0 22 22" id="instagram" xmlns="http://www.w3.org/2000/svg"><g clip-path="url(#dclip0_293_1747)"><path d="M17.395 4.07a.535.535 0 10.001 1.07.535.535 0 000-1.07zM11 6.265A4.74 4.74 0 006.265 11 4.74 4.74 0 0011 15.735 4.74 4.74 0 0015.735 11 4.74 4.74 0 0011 6.265z"/><path d="M15.969 0H6.031A6.038 6.038 0 000 6.031v9.938A6.038 6.038 0 006.031 22h9.938A6.038 6.038 0 0022 15.969V6.031A6.038 6.038 0 0015.969 0zM11 17.034A6.041 6.041 0 014.966 11 6.04 6.04 0 0111 4.966 6.041 6.041 0 0117.034 11 6.041 6.041 0 0111 17.034zm6.395-10.596a1.835 1.835 0 01-1.833-1.833c0-1.01.822-1.833 1.833-1.833 1.011 0 1.833.822 1.833 1.833 0 1.01-.822 1.833-1.833 1.833z"/></g><defs><clipPath id="dclip0_293_1747"><path d="M0 0h22v22H0z"/></clipPath></defs></svg><svg viewBox="0 0 50 50" id="phone" xmlns="http://www.w3.org/2000/svg"><g clip-path="url(#eclip0_206_835)"><path d="M49.892 38.74c-.142-.425-1.041-1.053-2.699-1.88a83.251 83.251 0 00-1.916-1.066c-.829-.45-1.581-.865-2.255-1.244a75.246 75.246 0 01-1.9-1.1c-.095-.07-.39-.278-.888-.622a9.965 9.965 0 00-1.261-.763 2.324 2.324 0 00-1.012-.248c-.474 0-1.065.337-1.775 1.011a17.288 17.288 0 00-1.953 2.203 21.395 21.395 0 01-1.881 2.201c-.663.675-1.208 1.012-1.634 1.012-.213 0-.48-.06-.8-.177a8.245 8.245 0 01-.728-.301 13.208 13.208 0 01-.851-.498 22.265 22.265 0 00-.675-.409c-3.244-1.8-6.025-3.86-8.345-6.179-2.32-2.32-4.38-5.101-6.179-8.345-.024-.047-.16-.272-.408-.675a12.85 12.85 0 01-.498-.852 7.712 7.712 0 01-.301-.728c-.118-.32-.178-.586-.178-.799 0-.426.338-.97 1.012-1.633a21.386 21.386 0 012.202-1.882 17.288 17.288 0 002.202-1.953c.674-.71 1.011-1.302 1.011-1.775 0-.331-.082-.669-.248-1.012a9.877 9.877 0 00-.764-1.261c-.343-.497-.55-.793-.621-.888a78.02 78.02 0 01-1.1-1.9c-.38-.674-.794-1.426-1.244-2.254a84.281 84.281 0 00-1.065-1.918C12.312 1.148 11.684.248 11.258.107 11.092.036 10.844 0 10.513 0c-.64 0-1.474.118-2.504.355s-1.84.485-2.433.746c-1.183.497-2.438 1.94-3.764 4.332C.605 7.657.002 9.86.002 12.037c0 .64.04 1.26.123 1.865.083.603.231 1.284.445 2.042.213.757.384 1.32.514 1.686.13.367.373 1.024.728 1.971.355.947.568 1.527.64 1.74.828 2.32 1.81 4.391 2.946 6.214 1.87 3.03 4.42 6.162 7.652 9.394 3.232 3.23 6.363 5.782 9.393 7.652 1.823 1.136 3.895 2.118 6.214 2.948.214.07.793.283 1.74.64.947.354 1.604.597 1.97.727.368.13.93.302 1.687.516a15.45 15.45 0 002.042.444c.604.082 1.226.124 1.865.124 2.177 0 4.38-.604 6.605-1.811 2.39-1.325 3.834-2.58 4.331-3.765.262-.591.51-1.402.746-2.432.237-1.03.355-1.864.355-2.503.001-.333-.035-.581-.106-.748z"/></g><defs><clipPath id="eclip0_206_835"><path d="M0 0h50v50H0z"/></clipPath></defs></svg><svg viewBox="0 0 22 22" id="telegram" xmlns="http://www.w3.org/2000/svg"><path d="M.389 10.607L5.458 12.5l1.962 6.31c.125.404.62.554.948.286l2.825-2.304a.843.843 0 011.028-.029l5.096 3.7c.351.256.849.064.936-.36l3.734-17.96a.598.598 0 00-.8-.678L.383 9.489a.598.598 0 00.006 1.118zm6.715.885L17.01 5.39c.178-.109.361.132.208.274l-8.176 7.6a1.695 1.695 0 00-.525 1.014l-.279 2.064c-.037.276-.424.303-.5.036l-1.071-3.764a.998.998 0 01.436-1.122z"/></svg><svg viewBox="0 0 64 64" id="times" xmlns="http://www.w3.org/2000/svg"><path d="M-448-64H832v800H-448z"/><path d="M31.962 27.115L58.842.295l4.95 4.938-26.88 26.82 26.88 26.82-4.95 4.938-26.88-26.82-26.88 26.82-4.95-4.938 26.881-26.82L.133 5.233 5.082.295z"/><path d="M31.962 27.115L58.842.295l4.95 4.938-26.88 26.82 26.88 26.82-4.95 4.938-26.88-26.82-26.88 26.82-4.95-4.938 26.881-26.82L.133 5.233 5.082.295z"/></svg></svg>