<?xml version="1.0" encoding="UTF-8" standalone="no"?>
<svg
   xmlns:dc="http://purl.org/dc/elements/1.1/"
   xmlns:cc="http://creativecommons.org/ns#"
   xmlns:rdf="http://www.w3.org/1999/02/22-rdf-syntax-ns#"
   xmlns:svg="http://www.w3.org/2000/svg"
   xmlns="http://www.w3.org/2000/svg"
   xmlns:sodipodi="http://sodipodi.sourceforge.net/DTD/sodipodi-0.dtd"
   xmlns:inkscape="http://www.inkscape.org/namespaces/inkscape"
   width="50"
   height="50"
   viewBox="0 0 50 50"
   fill="none"
   version="1.1"
   id="svg27"
   sodipodi:docname="phone-icon.svg"
   inkscape:version="0.92.5 (2060ec1f9f, 2020-04-08)">
  <metadata
     id="metadata31">
    <rdf:RDF>
      <cc:Work
         rdf:about="">
        <dc:format>image/svg+xml</dc:format>
        <dc:type
           rdf:resource="http://purl.org/dc/dcmitype/StillImage" />
      </cc:Work>
    </rdf:RDF>
  </metadata>
  <sodipodi:namedview
     pagecolor="#ffffff"
     bordercolor="#666666"
     borderopacity="1"
     objecttolerance="10"
     gridtolerance="10"
     guidetolerance="10"
     inkscape:pageopacity="0"
     inkscape:pageshadow="2"
     inkscape:window-width="1024"
     inkscape:window-height="697"
     id="namedview29"
     showgrid="false"
     inkscape:zoom="9.0159375"
     inkscape:cx="25"
     inkscape:cy="25"
     inkscape:window-x="0"
     inkscape:window-y="0"
     inkscape:window-maximized="1"
     inkscape:current-layer="svg27" />
  <g
     clip-path="url(#clip0_206_835)"
     id="g20"
     style="fill:#1fd867;fill-opacity:1">
    <path
       d="M49.8919 38.7409C49.7505 38.3147 48.8507 37.687 47.1932 36.8591C46.7442 36.5982 46.1044 36.2436 45.2766 35.7937C44.448 35.3438 43.6958 34.9293 43.0216 34.5504C42.346 34.1717 41.713 33.8048 41.1216 33.4502C41.027 33.3791 40.7311 33.1723 40.234 32.8283C39.7364 32.4852 39.3167 32.2306 38.9728 32.0646C38.6296 31.8995 38.2921 31.8165 37.9606 31.8165C37.4872 31.8165 36.8959 32.154 36.186 32.8283C35.476 33.5034 34.8248 34.2367 34.2332 35.0305C33.6416 35.8239 33.0141 36.5573 32.3519 37.232C31.6887 37.907 31.1438 38.2442 30.7182 38.2442C30.5045 38.2442 30.2381 38.1846 29.9188 38.0671C29.5996 37.9488 29.3568 37.8475 29.1902 37.7657C29.025 37.6823 28.7415 37.5171 28.3388 37.2677C27.9353 37.0191 27.7109 36.8829 27.6637 36.8591C24.4205 35.0595 21.639 32.9998 19.3187 30.6805C16.9992 28.3598 14.9392 25.5786 13.1401 22.3351C13.1165 22.2877 12.98 22.0627 12.7316 21.6604C12.4829 21.2578 12.3171 20.9741 12.2342 20.8079C12.1514 20.6424 12.0508 20.3996 11.9326 20.0801C11.8145 19.7605 11.7551 19.4944 11.7551 19.2811C11.7551 18.8552 12.0926 18.3104 12.7673 17.6475C13.442 16.9849 14.176 16.3573 14.9688 15.7659C15.7622 15.1745 16.4956 14.5232 17.1705 13.8133C17.8451 13.1029 18.1824 12.5114 18.1824 12.038C18.1824 11.7068 18.0996 11.3691 17.934 11.0259C17.7683 10.682 17.5139 10.2624 17.1705 9.76498C16.8269 9.26783 16.6198 8.97219 16.5487 8.87704C16.194 8.28561 15.8274 7.6524 15.4482 6.97765C15.069 6.30302 14.655 5.55102 14.205 4.72254C13.7554 3.89442 13.4005 3.25499 13.1398 2.80524C12.3117 1.14839 11.6845 0.248384 11.2582 0.106841C11.0924 0.0358211 10.8437 0 10.5126 0C9.87304 0 9.0387 0.11816 8.00897 0.355226C6.97887 0.591918 6.16829 0.840178 5.57637 1.101C4.39266 1.59789 3.13805 3.04193 1.81217 5.43261C0.604831 7.6575 0.0012207 9.85963 0.0012207 12.0374C0.0012207 12.6761 0.0426388 13.2975 0.125475 13.9017C0.208311 14.5053 0.356322 15.186 0.569631 15.9437C0.782568 16.7012 0.954335 17.2639 1.08419 17.6303C1.21416 17.997 1.45682 18.6538 1.81205 19.6011C2.16678 20.5481 2.38009 21.1278 2.45111 21.3409C3.2796 23.6611 4.26206 25.7323 5.39826 27.5554C7.26767 30.5855 9.81881 33.717 13.0502 36.9486C16.2816 40.1799 19.4125 42.7309 22.4429 44.6011C24.2656 45.7372 26.3377 46.7195 28.6575 47.5486C28.8706 47.6193 29.4504 47.8321 30.397 48.1881C31.344 48.543 32.0011 48.7857 32.3678 48.9159C32.7346 49.0463 33.2974 49.2182 34.0542 49.4315C34.8127 49.6448 35.4928 49.7928 36.0964 49.8762C36.7004 49.958 37.3219 50.0001 37.9607 50.0001C40.1384 50.0001 42.3406 49.3961 44.5659 48.1889C46.9563 46.8635 48.4 45.6087 48.8971 44.4241C49.1586 43.8328 49.4062 43.022 49.6429 41.9919C49.8803 40.9623 49.9982 40.1281 49.9982 39.4886C49.999 39.1562 49.9633 38.908 49.8919 38.7409Z"
       fill="#FF4500"
       id="path18"
       style="fill:#1fd867;fill-opacity:1" />
  </g>
  <defs
     id="defs25">
    <clipPath
       id="clip0_206_835">
      <rect
         width="50"
         height="50"
         fill="white"
         id="rect22" />
    </clipPath>
  </defs>
</svg>
